<svg width="38" height="35" viewBox="0 0 38 35" fill="none" xmlns="http://www.w3.org/2000/svg">
<rect y="-3" width="38" height="38" rx="5" fill="#7367F0" fill-opacity="0.12"/>
<path fill-rule="evenodd" clip-rule="evenodd" d="M25 11.5H22.75V10.75C22.75 9.475 21.775 8.5 20.5 8.5H17.5C16.225 8.5 15.25 9.475 15.25 10.75V11.5H13C11.725 11.5 10.75 12.475 10.75 13.75V21.25C10.75 22.525 11.725 23.5 13 23.5H25C26.275 23.5 27.25 22.525 27.25 21.25V13.75C27.25 12.475 26.275 11.5 25 11.5ZM16.75 10.75C16.75 10.3 17.05 10 17.5 10H20.5C20.95 10 21.25 10.3 21.25 10.75V11.5H16.75V10.75ZM21.25 22V13H16.75V22H21.25ZM12.25 21.25V13.75C12.25 13.3 12.55 13 13 13H15.25V22H13C12.55 22 12.25 21.7 12.25 21.25ZM25 22C25.45 22 25.75 21.7 25.75 21.25V13.75C25.75 13.3 25.45 13 25 13H22.75V22H25Z" fill="black"/>
<mask id="mask0_222_4099" style="mask-type:alpha" maskUnits="userSpaceOnUse" x="10" y="8" width="18" height="16">
<path fill-rule="evenodd" clip-rule="evenodd" d="M25 11.5H22.75V10.75C22.75 9.475 21.775 8.5 20.5 8.5H17.5C16.225 8.5 15.25 9.475 15.25 10.75V11.5H13C11.725 11.5 10.75 12.475 10.75 13.75V21.25C10.75 22.525 11.725 23.5 13 23.5H25C26.275 23.5 27.25 22.525 27.25 21.25V13.75C27.25 12.475 26.275 11.5 25 11.5ZM16.75 10.75C16.75 10.3 17.05 10 17.5 10H20.5C20.95 10 21.25 10.3 21.25 10.75V11.5H16.75V10.75ZM21.25 22V13H16.75V22H21.25ZM12.25 21.25V13.75C12.25 13.3 12.55 13 13 13H15.25V22H13C12.55 22 12.25 21.7 12.25 21.25ZM25 22C25.45 22 25.75 21.7 25.75 21.25V13.75C25.75 13.3 25.45 13 25 13H22.75V22H25Z" fill="white"/>
</mask>
<g mask="url(#mask0_222_4099)">
<rect x="10" y="7" width="18" height="18" fill="#7367F0"/>
</g>
</svg>
